General
Complete name                    : The Shawshank Redemption.mkv
Format                           : Matroska
File size                        : 2.17 GiB
Duration                         : 2h 16mn
Overall bit rate                 : 2 270 Kbps


Video
ID                               : 1
Format                           : AVC

Duration                         : 2h 16mn
Bit rate                         : 1 997 Kbps
Nominal bit rate                 : 2 022 Kbps
Width                            : 704 pixels
Height                           : 546 pixels
Display aspect ratio             : 16/9
Frame rate                       : 25.000 fps
Resolution                       : 24 bits
Colorimetry                      : 4:2:0
Scan type                        : Progressive
Bits/(Pixel*Frame)               : 0.208
Stream size                      : 1.91 GiB (88%)
Writing library                  : x264 core 79
 aq=1:1.00

Audio
ID                               : 2
Format                           : AC-3
Format/Info                      : Audio Coding 3
Codec ID                         : A_AC3
Duration                         : 2h 16mn
Bit rate mode                    : Constant
Bit rate                         : 224 Kbps
Channel(s)                       : 6 channels
Channel positions                : Front: L C R, Surround: L R, LFE
Sampling rate                    : 48.0 KHz
Stream size                      : 219 MiB (10%)
Language                         : English

Text #1
Language                         : Danish

Text #2
Language                         : Finnish

Text #3
Language                         : Norwegian

Text #4
Language                         : Swedish
